<svg width="128" height="120" viewBox="0 0 128 120" fill="none" xmlns="http://www.w3.org/2000/svg">
<rect x="80" y="16" width="8" height="8" fill="black"/>
<rect x="64" y="48" width="8" height="8" fill="black"/>
<rect x="64" y="80" width="8" height="8" fill="black"/>
<rect x="32" y="56" width="8" height="16" fill="black"/>
<rect x="72" y="8" width="8" height="8" fill="black"/>
<rect x="48" y="8" width="8" height="8" fill="black"/>
<rect x="16" y="32" width="8" height="8" fill="black"/>
<rect x="16" y="48" width="8" height="8" fill="black"/>
<rect x="24" y="24" width="8" height="8" fill="black"/>
<rect x="48" y="24" width="8" height="16" fill="#ABDAD6"/>
<rect x="80" y="24" width="8" height="16" fill="#ABDAD6"/>
<rect x="88" y="16" width="8" height="16" fill="#ABDAD6"/>
<rect x="96" y="16" width="8" height="8" fill="#ABDAD6"/>
<rect x="72" y="16" width="8" height="8" fill="#ABDAD6"/>
<rect x="64" y="8" width="8" height="8" fill="#ABDAD6"/>
<rect x="104" y="32" width="8" height="8" fill="#ABDAD6"/>
<rect x="96" y="40" width="8" height="8" fill="#ABDAD6"/>
<rect x="56" y="40" width="32" height="8" fill="#ABDAD6"/>
<rect x="40" y="64" width="8" height="8" fill="black"/>
<rect x="40" y="56" width="8" height="8" fill="white"/>
<rect x="16" y="80" width="8" height="8" fill="black"/>
<rect y="32" width="8" height="8" fill="black"/>
<rect x="104" y="40" width="8" height="8" fill="black"/>
<rect x="112" y="56" width="8" height="8" fill="black"/>
<rect x="72" y="88" width="8" height="8" fill="#F7A209"/>
<rect x="80" y="80" width="8" height="8" fill="#F7A209"/>
<rect x="72" y="80" width="8" height="8" fill="#FADD25"/>
<rect x="80" y="48" width="8" height="8" fill="#F7A209"/>
<rect x="56" y="48" width="8" height="8" fill="#F7A209"/>
<rect x="56" y="80" width="8" height="8" fill="#F7A209"/>
<rect x="72" y="48" width="8" height="8" fill="#FADD25"/>
<rect x="48" y="48" width="8" height="8" fill="#FADD25"/>
<rect x="48" y="16" width="8" height="8" fill="#DBEBEB"/>
<rect x="56" y="8" width="8" height="32" fill="#DBEBEB"/>
<rect x="64" y="16" width="8" height="24" fill="#DBEBEB"/>
<rect x="104" y="16" width="8" height="16" fill="#DBEBEB"/>
<rect x="96" y="24" width="8" height="16" fill="#DBEBEB"/>
<rect x="88" y="32" width="8" height="16" fill="#DBEBEB"/>
<rect x="48" y="80" width="8" height="8" fill="#FADD25"/>
<rect x="24" y="48" width="24" height="8" fill="#F8ECBA"/>
<rect x="24" y="80" width="24" height="8" fill="#F8ECBA"/>
<rect x="32" y="72" width="16" height="8" fill="#F8ECBA"/>
<rect x="16" y="56" width="16" height="24" fill="#F8ECBA"/>
<rect x="48" y="56" width="8" height="24" fill="#F8ECBA"/>
<rect x="112" y="64" width="8" height="8" fill="#F7A209"/>
<rect x="88" y="56" width="8" height="24" fill="#F7A209"/>
<rect x="64" y="56" width="8" height="24" fill="#F7A209"/>
<rect x="80" y="56" width="8" height="24" fill="#FADD25"/>
<rect x="56" y="56" width="8" height="24" fill="#FADD25"/>
<rect x="104" y="56" width="8" height="24" fill="#F7A209"/>
<rect x="120" y="64" width="8" height="8" fill="black"/>
<rect x="112" y="72" width="8" height="8" fill="black"/>
<rect x="104" y="80" width="8" height="8" fill="black"/>
<rect x="24" y="88" width="48" height="8" fill="black"/>
<rect x="48" y="96" width="32" height="8" fill="black"/>
<rect x="8" y="40" width="48" height="8" fill="black"/>
<rect x="88" y="80" width="8" height="8" fill="black"/>
<rect x="80" y="88" width="16" height="8" fill="black"/>
<rect x="56" width="16" height="8" fill="black"/>
<rect x="72" y="24" width="8" height="16" fill="black"/>
<rect x="104" y="104" width="8" height="16" fill="black"/>
<rect x="80" y="104" width="8" height="16" fill="black"/>
<rect x="112" y="16" width="8" height="24" fill="black"/>
<rect x="72" y="56" width="8" height="24" fill="black"/>
<rect x="8" y="56" width="8" height="24" fill="black"/>
<rect x="40" y="16" width="8" height="24" fill="black"/>
<rect x="96" y="56" width="8" height="48" fill="black"/>
<rect x="88" y="8" width="24" height="8" fill="black"/>
<rect x="88" y="48" width="24" height="8" fill="black"/>
</svg>
