<svg width="72" height="96" viewBox="0 0 72 96" fill="none" xmlns="http://www.w3.org/2000/svg">
<rect x="32" width="8" height="16" fill="#015000"/>
<rect x="32" y="24" width="8" height="8" fill="#548723"/>
<rect x="16" y="24" width="8" height="8" fill="#548723"/>
<rect x="48" y="24" width="8" height="8" fill="#548723"/>
<rect x="24" y="24" width="8" height="8" fill="#015000"/>
<rect x="16" y="32" width="8" height="8" fill="#015000"/>
<rect x="8" y="32" width="8" height="16" fill="#FB153F"/>
<rect x="8" y="56" width="8" height="16" fill="#FB153F"/>
<rect x="24" y="32" width="8" height="24" fill="#FB153F"/>
<rect x="16" y="40" width="8" height="40" fill="#FB153F"/>
<rect x="40" y="32" width="8" height="16" fill="#FB153F"/>
<rect x="48" y="40" width="8" height="40" fill="#FB153F"/>
<rect x="32" y="40" width="8" height="48" fill="#FB153F"/>
<rect x="56" y="32" width="8" height="8" fill="#FB153F"/>
<rect x="56" y="64" width="8" height="8" fill="#FB153F"/>
<rect x="56" y="48" width="8" height="8" fill="#FB153F"/>
<rect x="40" y="56" width="8" height="8" fill="#FB153F"/>
<rect x="24" y="64" width="8" height="8" fill="#FB153F"/>
<rect x="24" y="80" width="8" height="8" fill="#FB153F"/>
<rect x="40" y="72" width="8" height="16" fill="#FB153F"/>
<rect x="64" y="32" width="8" height="40" fill="#890F33"/>
<rect y="32" width="8" height="40" fill="#890F33"/>
<rect x="56" y="72" width="8" height="8" fill="#890F33"/>
<rect x="48" y="80" width="8" height="8" fill="#890F33"/>
<rect x="16" y="80" width="8" height="8" fill="#890F33"/>
<rect x="8" y="72" width="8" height="8" fill="#890F33"/>
<rect x="24" y="88" width="24" height="8" fill="#890F33"/>
<rect x="56" y="40" width="8" height="8" fill="#B60F31"/>
<rect x="8" y="48" width="8" height="8" fill="#B60F31"/>
<rect x="24" y="72" width="8" height="8" fill="#B60F31"/>
<rect x="40" y="64" width="8" height="8" fill="#B60F31"/>
<rect x="56" y="56" width="8" height="8" fill="#B60F31"/>
<rect x="24" y="56" width="8" height="8" fill="#B60F31"/>
<rect x="40" y="48" width="8" height="8" fill="#B60F31"/>
<rect x="56" y="24" width="8" height="8" fill="#015000"/>
<rect x="48" y="32" width="8" height="8" fill="#015000"/>
<rect x="8" y="24" width="8" height="8" fill="#015000"/>
<rect x="40" y="24" width="8" height="8" fill="#015000"/>
<rect x="32" y="32" width="8" height="8" fill="#015000"/>
<rect x="16" y="16" width="40" height="8" fill="#015000"/>
</svg>
