<svg width="104" height="72" viewBox="0 0 104 72" fill="none" xmlns="http://www.w3.org/2000/svg">
<rect x="72" width="8" height="8" fill="#BD8B1E"/>
<rect x="88" y="16" width="8" height="8" fill="#BD8B1E"/>
<rect x="88" y="48" width="8" height="8" fill="#BD8B1E"/>
<rect x="24" y="56" width="8" height="8" fill="#BD8B1E"/>
<rect x="16" y="24" width="8" height="8" fill="#FFD825"/>
<rect x="8" y="32" width="16" height="8" fill="#FAC029"/>
<rect x="40" y="32" width="32" height="8" fill="#FAC029"/>
<rect x="32" y="56" width="40" height="8" fill="#FAC029"/>
<rect x="32" y="40" width="8" height="8" fill="#FFD825"/>
<rect x="80" y="32" width="16" height="8" fill="#FFD825"/>
<rect x="64" y="16" width="16" height="8" fill="#FFD825"/>
<rect x="88" y="24" width="8" height="8" fill="#FFD825"/>
<rect x="72" y="8" width="8" height="8" fill="#FFD825"/>
<rect x="72" y="40" width="24" height="8" fill="#FFD825"/>
<rect x="56" y="24" width="24" height="8" fill="#FFD825"/>
<rect x="24" y="48" width="64" height="8" fill="#FFD825"/>
<rect x="16" y="48" width="8" height="8" fill="#BD8B1E"/>
<rect y="24" width="8" height="16" fill="#BD8B1E"/>
<rect x="72" y="32" width="8" height="8" fill="#BD8B1E"/>
<rect x="64" y="8" width="8" height="8" fill="#BD8B1E"/>
<rect x="56" y="16" width="8" height="8" fill="#BD8B1E"/>
<rect x="24" y="32" width="16" height="8" fill="#BD8B1E"/>
<rect x="8" y="40" width="16" height="8" fill="#BD8B1E"/>
<rect x="8" y="16" width="16" height="8" fill="#BD8B1E"/>
<rect x="24" y="24" width="32" height="8" fill="#BD8B1E"/>
<rect x="40" y="40" width="32" height="8" fill="#BD8B1E"/>
<rect x="72" y="56" width="16" height="8" fill="#BD8B1E"/>
<rect x="32" y="64" width="40" height="8" fill="#BD8B1E"/>
<rect x="88" width="8" height="8" fill="#623C09"/>
<rect x="96" y="8" width="8" height="8" fill="#623C09"/>
<rect x="8" y="24" width="8" height="8" fill="#623C09"/>
<rect x="24" y="40" width="8" height="8" fill="#623C09"/>
<rect x="80" width="8" height="32" fill="#BD8B1E"/>
<rect x="96" y="24" width="8" height="24" fill="#BD8B1E"/>
</svg>
