<svg width="72" height="112" viewBox="0 0 72 112" fill="none" xmlns="http://www.w3.org/2000/svg">
<rect x="8" y="48" width="8" height="8" fill="#A24409"/>
<rect x="24" y="88" width="8" height="8" fill="#D46911"/>
<rect x="24" y="96" width="8" height="8" fill="#FF9A26"/>
<rect x="16" y="64" width="8" height="24" fill="#D46911"/>
<rect x="16" y="88" width="8" height="16" fill="#FF9A26"/>
<rect x="16" y="48" width="8" height="16" fill="#FF9A26"/>
<rect x="24" y="48" width="8" height="40" fill="#FF9A26"/>
<rect x="8" y="56" width="8" height="40" fill="#FF9A26"/>
<rect x="56" y="56" width="8" height="40" fill="#FF9A26"/>
<rect x="32" y="48" width="24" height="56" fill="#FF9A26"/>
<rect x="24" y="8" width="8" height="8" fill="#024D01"/>
<rect x="8" y="16" width="8" height="8" fill="#024D01"/>
<rect x="8" y="8" width="8" height="8" fill="#93B60D"/>
<rect x="16" y="16" width="8" height="8" fill="#93B60D"/>
<rect x="16" y="8" width="8" height="8" fill="#B2E200"/>
<rect x="24" y="16" width="8" height="8" fill="#B2E200"/>
<rect x="16" y="24" width="16" height="8" fill="#024D01"/>
<rect y="8" width="8" height="8" fill="#024D01"/>
<rect width="24" height="8" fill="#024D01"/>
<rect x="32" y="16" width="8" height="24" fill="#024D01"/>
<rect y="56" width="8" height="40" fill="#A24409"/>
<rect x="64" y="56" width="8" height="40" fill="#A24409"/>
<rect x="56" y="48" width="8" height="8" fill="#A24409"/>
<rect x="56" y="96" width="8" height="8" fill="#A24409"/>
<rect x="8" y="96" width="8" height="8" fill="#A24409"/>
<rect x="16" y="40" width="40" height="8" fill="#A24409"/>
<rect x="16" y="104" width="40" height="8" fill="#A24409"/>
</svg>
