<svg width="72" height="96" viewBox="0 0 72 96" fill="none" xmlns="http://www.w3.org/2000/svg">
<rect x="8" y="32" width="8" height="8" fill="#C181E2"/>
<rect x="16" y="56" width="8" height="8" fill="#C181E2"/>
<rect x="32" y="72" width="8" height="8" fill="#C181E2"/>
<rect x="32" y="24" width="8" height="8" fill="#C181E2"/>
<rect x="40" y="48" width="8" height="8" fill="#C181E2"/>
<rect x="56" y="32" width="8" height="8" fill="#C181E2"/>
<rect x="8" y="24" width="16" height="8" fill="#4C3E87"/>
<rect x="32" y="16" width="16" height="8" fill="#4C3E87"/>
<rect x="24" y="88" width="16" height="8" fill="#4C3E87"/>
<rect x="8" y="48" width="16" height="8" fill="#4C3E87"/>
<rect x="32" y="64" width="24" height="8" fill="#4C3E87"/>
<rect x="56" y="24" width="8" height="8" fill="#4C3E87"/>
<rect x="24" y="72" width="8" height="8" fill="#4C3E87"/>
<rect x="32" y="40" width="16" height="8" fill="#4C3E87"/>
<rect y="32" width="8" height="16" fill="#4C3E87"/>
<rect x="24" y="8" width="8" height="16" fill="#643B12"/>
<rect x="16" width="8" height="8" fill="#643B12"/>
<rect x="56" y="8" width="8" height="8" fill="#643B12"/>
<rect x="32" width="24" height="8" fill="#643B12"/>
<rect x="8" y="8" width="8" height="8" fill="#643B12"/>
<rect x="8" y="56" width="8" height="16" fill="#4C3E87"/>
<rect x="16" y="72" width="8" height="16" fill="#4C3E87"/>
<rect x="64" y="32" width="8" height="16" fill="#4C3E87"/>
<rect x="56" y="48" width="8" height="16" fill="#4C3E87"/>
<rect x="40" y="72" width="8" height="16" fill="#4C3E87"/>
<rect x="32" y="48" width="8" height="16" fill="#4C3E87"/>
<rect x="8" y="40" width="8" height="8" fill="#8A52BD"/>
<rect x="16" y="64" width="8" height="8" fill="#8A52BD"/>
<rect x="24" y="80" width="16" height="8" fill="#8A52BD"/>
<rect x="32" y="32" width="8" height="8" fill="#8A52BD"/>
<rect x="40" y="56" width="8" height="8" fill="#8A52BD"/>
<rect x="56" y="40" width="8" height="8" fill="#8A52BD"/>
<rect x="24" y="24" width="8" height="32" fill="#4E3D89"/>
<rect x="48" y="24" width="8" height="24" fill="#4E3D89"/>
<rect x="16" y="32" width="8" height="16" fill="#8A52BD"/>
<rect x="24" y="56" width="8" height="16" fill="#8A52BD"/>
<rect x="40" y="24" width="8" height="16" fill="#8A52BD"/>
<rect x="48" y="48" width="8" height="16" fill="#8A52BD"/>
</svg>
