<svg width="16" height="16" viewBox="0 0 16 16" fill="none" xmlns="http://www.w3.org/2000/svg">
<path d="M2.5 13.5V2.5H13.5V13.5H2.5Z" fill="#C2A47C"/>
<mask id="path-2-inside-1_14_25" fill="white">
<path fill-rule="evenodd" clip-rule="evenodd" d="M0 13V3V0H3H13H16V3V13V16H13H3H0V13ZM13 5.55636V13H5.55636L13 5.55636ZM11.3137 3L3 11.3137V3H11.3137Z"/>
</mask>
<path fill-rule="evenodd" clip-rule="evenodd" d="M0 13V3V0H3H13H16V3V13V16H13H3H0V13ZM13 5.55636V13H5.55636L13 5.55636ZM11.3137 3L3 11.3137V3H11.3137Z" fill="#AE926C"/>
<path d="M0 0V-0.4H-0.4V0H0ZM16 0H16.4V-0.4H16V0ZM16 16V16.4H16.4V16H16ZM0 16H-0.4V16.4H0V16ZM13 13V13.4H13.4V13H13ZM13 5.55636H13.4V4.59068L12.7172 5.27352L13 5.55636ZM5.55636 13L5.27352 12.7172L4.59068 13.4H5.55636V13ZM3 11.3137H2.6V12.2794L3.28284 11.5966L3 11.3137ZM11.3137 3L11.5966 3.28284L12.2794 2.6H11.3137V3ZM3 3V2.6H2.6V3H3ZM-0.4 3V13H0.4V3H-0.4ZM-0.4 0V3H0.4V0H-0.4ZM3 -0.4H0V0.4H3V-0.4ZM13 -0.4H3V0.4H13V-0.4ZM16 -0.4H13V0.4H16V-0.4ZM16.4 3V0H15.6V3H16.4ZM16.4 13V3H15.6V13H16.4ZM16.4 16V13H15.6V16H16.4ZM13 16.4H16V15.6H13V16.4ZM3 16.4H13V15.6H3V16.4ZM0 16.4H3V15.6H0V16.4ZM-0.4 13V16H0.4V13H-0.4ZM13.4 13V5.55636H12.6V13H13.4ZM5.55636 13.4H13V12.6H5.55636V13.4ZM12.7172 5.27352L5.27352 12.7172L5.8392 13.2828L13.2828 5.8392L12.7172 5.27352ZM3.28284 11.5966L11.5966 3.28284L11.0309 2.71716L2.71716 11.0309L3.28284 11.5966ZM2.6 3V11.3137H3.4V3H2.6ZM11.3137 2.6H3V3.4H11.3137V2.6Z" fill="#6B5434" mask="url(#path-2-inside-1_14_25)"/>
</svg>
